# xmcd CD database file
#
# Track frame offsets:
#	150
#	9625
#	24567
#	43007
#	61275
#	80390
#	97282
#	121135
#
# Disc length: 1963 seconds
#
# Revision: 2
# Processed by: cddbd v1.4PL0 Copyright (c) Steve Scherf et al.
# Submitted via: CDex 1.40PlusFr
#
DISCID=6107a908
DTITLE=BOSS - Volume 2
DYEAR=2000
DGENRE=Rap
TTITLE0=Intro
TTITLE1=Plus d'amour
TTITLE2=Money Money
TTITLE3=Comme des fous
TTITLE4=Ho Hisse !
TTITLE5=Je Boss
TTITLE6=On rêve tous d'être Boss
TTITLE7=Outro
EXTD=YEAR: 2000 ID3G: 15
EXTT0=
EXTT1=
EXTT2=
EXTT3=
EXTT4=
EXTT5=
EXTT6=
EXTT7=
PLAYORDER=
